<svg xmlns="http://www.w3.org/2000/svg" width="20" height="20" viewBox="0 0 20 20">
  <path id="icon-pinterest" d="M10,0A10,10,0,0,0,6.356,19.312a9.536,9.536,0,0,1,.035-2.868c.182-.78,1.172-4.97,1.172-4.97a3.62,3.62,0,0,1-.3-1.486c0-1.39.806-2.428,1.81-2.428a1.255,1.255,0,0,1,1.264,1.408A20.066,20.066,0,0,1,9.51,12.3a1.452,1.452,0,0,0,1.48,1.807c1.778,0,3.144-1.874,3.144-4.58A3.948,3.948,0,0,0,9.957,5.457,4.329,4.329,0,0,0,5.442,9.8a3.879,3.879,0,0,0,.745,2.281.3.3,0,0,1,.069.288L5.978,13.5c-.044.183-.145.223-.335.134-1.249-.581-2.03-2.407-2.03-3.874,0-3.154,2.292-6.052,6.608-6.052a5.869,5.869,0,0,1,6.165,5.776c0,3.447-2.173,6.22-5.19,6.22A2.672,2.672,0,0,1,8.9,14.555l-.623,2.378a11.1,11.1,0,0,1-1.244,2.621A10,10,0,1,0,10,0Z" fill="#fff"/>
</svg>
