<svg xmlns="http://www.w3.org/2000/svg" width="20" height="16.253" viewBox="0 0 20 16.253">
  <path id="icon-twitter" d="M20,2.172a8.192,8.192,0,0,1-2.357.646,4.11,4.11,0,0,0,1.8-2.27,8.22,8.22,0,0,1-2.6,1A4.106,4.106,0,0,0,9.849,5.285,11.648,11.648,0,0,1,1.392,1a4.109,4.109,0,0,0,1.27,5.478A4.086,4.086,0,0,1,.8,5.965,4.107,4.107,0,0,0,4.095,10.04a4.113,4.113,0,0,1-1.853.07,4.106,4.106,0,0,0,3.833,2.849A8.25,8.25,0,0,1,0,14.658,11.616,11.616,0,0,0,6.29,16.5,11.606,11.606,0,0,0,17.953,4.3,8.354,8.354,0,0,0,20,2.172Z" transform="translate(0 -0.248)" fill="#fff"/>
</svg>
