<svg xmlns="http://www.w3.org/2000/svg" width="176" height="51.055" viewBox="0 0 176 51.055">
  <g id="logo" transform="translate(0 -0.717)">
    <path id="Path_1" data-name="Path 1" d="M0,16.372V16.5L29.754,30.264,59.613,16.453v-.035L29.754,2.608Zm10.727.064,19.028-8.8,19.03,8.8-19.031,8.8-19.027-8.8ZM29.754,35.61,0,22.052v5.014l29.754,13.59L59.613,27.02V22.005Zm0,10.17L0,32.22v5.015L29.754,50.826,59.613,37.19V32.176ZM169.216,26.22a8.564,8.564,0,0,0-2.285-5.892,7.675,7.675,0,0,0-2.473-1.768,7.464,7.464,0,0,0-6.03,0,7.674,7.674,0,0,0-2.473,1.768,8.742,8.742,0,0,0,0,11.786,7.674,7.674,0,0,0,2.473,1.767,7.454,7.454,0,0,0,6.03,0,7.675,7.675,0,0,0,2.473-1.767,8.563,8.563,0,0,0,2.285-5.893Zm6.784,0a14.175,14.175,0,0,1-1.13,5.681,13.849,13.849,0,0,1-3.11,4.526,14.787,14.787,0,0,1-4.64,3.017,14.619,14.619,0,0,1-5.677,1.108,14.461,14.461,0,0,1-5.653-1.108,14.659,14.659,0,0,1-4.617-3.04,14.109,14.109,0,0,1-4.24-10.183,13.691,13.691,0,0,1,1.154-5.586,14.718,14.718,0,0,1,3.133-4.573,14.494,14.494,0,0,1,10.223-4.172A14.62,14.62,0,0,1,167.12,13a14.787,14.787,0,0,1,4.64,3.017,13.767,13.767,0,0,1,3.11,4.549A14.227,14.227,0,0,1,176,26.221ZM144.578,39.7a9.087,9.087,0,0,1-1.814.613,9.217,9.217,0,0,1-2.1.236,10.455,10.455,0,0,1-2.9-.4,6.089,6.089,0,0,1-4.075-3.631,8.824,8.824,0,0,1-.612-3.465V.717h6.925v31.16a3.138,3.138,0,0,0,.683,2.334,2.3,2.3,0,0,0,1.625.637,4.08,4.08,0,0,0,2.262-.707V39.7ZM130.02,12.55,117.771,44.936a11.033,11.033,0,0,1-3.58,5.233,8.76,8.76,0,0,1-5.277,1.6,8.4,8.4,0,0,1-1.036-.071,7.784,7.784,0,0,1-1.083-.212l-2.262-6.317a8.974,8.974,0,0,0,1.65.59,6.61,6.61,0,0,0,1.6.211,5.93,5.93,0,0,0,2.922-.73,4.744,4.744,0,0,0,2.025-2.711l.943-2.734L103.167,12.55h7.4l6.266,17.536,5.889-17.536h7.3Zm-28.5-4.1H83.806v8.769h17.478v5.94H83.806V39.845h-7.16V2.179h24.873v6.27Z" fill="#fff" fill-rule="evenodd"/>
  </g>
</svg>
