<svg xmlns="http://www.w3.org/2000/svg" width="48" height="54.134" viewBox="0 0 48 54.134">
  <path id="icon-scissors" d="M13.274,24.4l5.705-7.985a11.576,11.576,0,0,0-10.292,3.07C3.064,25.082.786,37.173.312,40.1L14.6,54.327c2.573-.22,13.962-1.734,24.937-12.659.116-.236,2.79-2.2.6-4.378a2.729,2.729,0,0,0-3.836.042,1.347,1.347,0,0,1-1.918.019,1.333,1.333,0,0,1,.019-1.909l3.878-3.861A2.671,2.671,0,0,0,35.648,27.1L32.474,29.81a1.344,1.344,0,1,1-1.745-2.043c11.09-9.687,9.47-8.521,16.606-15.178C50,10.378,46.647,6.47,44.02,8.707L26.759,24.16a1.348,1.348,0,0,1-1.765-.019,1.28,1.28,0,0,1-.211-1.756L36.823,3.753a2.208,2.208,0,1,0-3.558-2.616l-17.8,24.786a1.348,1.348,0,0,1-1.884.327,1.307,1.307,0,0,1-.307-1.85Z" transform="translate(-0.312 -0.194)" fill="#3b4262"/>
</svg>
