<svg xmlns="http://www.w3.org/2000/svg" width="48" height="63.712" viewBox="0 0 48 63.712">
  <path id="icon-spock" d="M48.068,35.373l-.943-.939a7.369,7.369,0,0,0-8.684-1.158l-5.873,3.342L33.792,9.852a4.092,4.092,0,0,0-5.479-3.828l.146-1.436A4.148,4.148,0,0,0,20.2,4.077L16.43,26.744c-.049.308-.586.276-.642.082L11.336,8.654a3.984,3.984,0,0,0-6.942-1.37,3.924,3.924,0,0,0-.754,3.365l.865,3.659a3.649,3.649,0,0,0-1.458.184A3.765,3.765,0,0,0,.506,18.662l2.62,14.994A41.134,41.134,0,0,0,5.042,46.579a14.867,14.867,0,0,1,.75,4.687,15,15,0,0,1-.583,4.147L3.177,62.494a1.326,1.326,0,0,0,1.281,1.691h24a1.331,1.331,0,0,0,1.267-1.748,16.5,16.5,0,0,1-.073-8.124c1.338-1.081,6.023-4.874,7.706-6.4,2.781-2.529,10.4-10.343,10.724-10.675a1.322,1.322,0,0,0-.013-1.863Z" transform="translate(-0.458 -0.473)" fill="#3b4262"/>
</svg>
