<svg xmlns="http://www.w3.org/2000/svg" width="48" height="47.985" viewBox="0 0 48 47.985">
  <path id="icon-rock" d="M45.93,12.457c-.654-8.253-9.923-7.41-9.923-7.41-3.911-6.9-10.023-1.9-10.023-1.9-4.7-6.759-10.581-.5-10.581-.5-10.15-1.095-9.757,7.2-9.757,7.2-.239,2.638,1.43,10.8,1.43,10.8-1.506-4.7-4.771-.8-4.771-.8-4.016,6.2-.994,9.587-.994,9.587,5.433,6.367,17.012,14.01,17.012,14.01,4.193,2.4,2.419,4.543,2.419,4.543L46.1,43.8l.582-4.809c3.855-11.658-.753-26.537-.753-26.537Z" transform="translate(-0.221 -0.008)" fill="#3b4262"/>
</svg>
