<svg xmlns="http://www.w3.org/2000/svg" width="48" height="46.649" viewBox="0 0 48 46.649">
  <path id="icon-lizard" d="M38.774,1.68c2.52-1.561,4.935-1.9,6.8-.951,4.182,2.122,3.576,10.023,1.865,13.446a8.611,8.611,0,0,1-5.093,4.2A23.451,23.451,0,0,1,38.418,26a6.167,6.167,0,0,0,3.963,1.433h.07L44.808,25.1a1.534,1.534,0,0,1,2.149,0,1.487,1.487,0,0,1,0,2.121l-.208.206h.474a1.5,1.5,0,1,1,0,3h-.474l.208.206a1.487,1.487,0,0,1,0,2.122,1.533,1.533,0,0,1-2.148,0L42.45,30.431h-.07A9.225,9.225,0,0,1,36.353,28.2q-.486.441-1,.845a19.637,19.637,0,0,1-10.633,3.965,9.426,9.426,0,0,1,.268,4.956l-.016.07,1.814,2.856a1.559,1.559,0,0,1-.46,2.139,1.515,1.515,0,0,1-2.113-.465l-.161-.253-.1.472a1.53,1.53,0,1,1-2.989-.659l.1-.472-.25.163a1.518,1.518,0,0,1-2.114-.466,1.559,1.559,0,0,1,.46-2.138l2.822-1.836L22,37.31a6.3,6.3,0,0,0-.556-4.209,34.936,34.936,0,0,1-3.743-.312,7.6,7.6,0,0,0-6.277,1.624c-4.306,3.974-5.139,11-5.147,11.067a1.537,1.537,0,0,1-2.8.694,18.165,18.165,0,0,1-2.4-5.942A13.459,13.459,0,0,1,4.4,27.916a16.154,16.154,0,0,1,6.818-4.381l-.318.083a6.235,6.235,0,0,0-2.633-.583H8.2L5.833,25.363a1.543,1.543,0,0,1-2.157,0,1.483,1.483,0,0,1,0-2.122l.209-.206H3.41a1.5,1.5,0,1,1,0-3h.476l-.209-.206a1.483,1.483,0,0,1,0-2.122,1.544,1.544,0,0,1,2.157,0L8.2,20.035h.07a9.262,9.262,0,0,1,6.758,2.907l-.169-.174a17.88,17.88,0,0,1,4.176.074q5.789.784,9.452-1.6a9.531,9.531,0,0,1-2.115-6.008v-.072L24.04,12.753a1.587,1.587,0,0,1,0-2.194,1.471,1.471,0,0,1,2.126,0l.207.213v-.485a1.5,1.5,0,1,1,3.006,0v.484l.207-.212a1.471,1.471,0,0,1,2.126,0,1.565,1.565,0,0,1,0,2.194L29.38,15.161v.071a6.379,6.379,0,0,0,1.382,3.978,14.339,14.339,0,0,0,2.594-4.963A9.424,9.424,0,0,1,34,6.572,14,14,0,0,1,38.775,1.68Z" transform="translate(-0.742 -0.202)" fill="#3b4262"/>
</svg>
