<svg xmlns="http://www.w3.org/2000/svg" width="48" height="58.206" viewBox="0 0 48 58.206">
  <path id="icon-paper" d="M46.913,11.778a2.909,2.909,0,0,0-1.226-.2,1.688,1.688,0,0,0-1.3.647c-1.6,2.238-2.906,6.463-3.961,9.86a46.7,46.7,0,0,1-1.6,4.669c-.491-2.794.064-13.03.279-16.972l0-.064a34.149,34.149,0,0,0,.137-3.43,3.556,3.556,0,0,0-1.791-2.93,3.829,3.829,0,0,0-3.556.56c-.674.408-.861,1.808-1.439,8.153l0,.028C32.138,15.588,31.4,23.615,30.5,24.953c-1.018-1.871-2.42-12.5-3.025-17.1-.423-3.221-.67-5.071-.836-5.629A3.666,3.666,0,0,0,23.359,0a2.688,2.688,0,0,0-2.686,1.631c-.89.99-.575,4.272.408,12.047.468,3.7,1.433,11.343.826,12.2-1.213-.132-3.295-4.92-6.187-14.234a19.321,19.321,0,0,0-1.312-3.736A3.879,3.879,0,0,0,10.75,5.9a3.168,3.168,0,0,0-.375.049c-.783.155-2.572.877-2.19,4.207A107.074,107.074,0,0,0,11.5,21.448l.023.066c.666,1.971,1.3,3.832,1.881,5.9a19.368,19.368,0,0,1,.836,7.939c-.046.311-.142.5-.287.567a.553.553,0,0,1-.194.045,3.177,3.177,0,0,1-1.43-.448c-.772-1.475-4.615-8.505-8.1-9.481L4.107,26l-.126.012a3.6,3.6,0,0,0-2.79,1.434,4.264,4.264,0,0,0-.442,3.325l.052.119c.028.051,2.821,5.141,3.253,7.51.372,2.031,2.3,4.231,3.851,6l.064.073c.506.577.942,1.078,1.286,1.541,4.5,4.692,11.612,8.638,11.67,8.67a3.059,3.059,0,0,1,1.433,1.832.794.794,0,0,1-.159.577l-.154.161.984.956,18.767-1.318.8-3.667a72.958,72.958,0,0,0,1.949-19.242c.01-.326.7-3.467,1.26-6.006l.017-.065c1.112-5.057,2.494-11.348,2.759-13.74a2.33,2.33,0,0,0-1.667-2.39Z" transform="translate(-0.594)" fill="#3b4262"/>
</svg>
